<?xml version="1.0" standalone="no"?>
<!DOCTYPE svg PUBLIC "-//W3C//DTD SVG 20010904//EN"
 "http://www.w3.org/TR/2001/REC-SVG-20010904/DTD/svg10.dtd">
<svg version="1.0" xmlns="http://www.w3.org/2000/svg"
 width="2048.000000pt" height="2048.000000pt" viewBox="0 0 2048.000000 2048.000000"
 preserveAspectRatio="xMidYMid meet">
<metadata>
Created by potrace 1.14, written by Peter Selinger 2001-2017
</metadata>
<g transform="translate(0.000000,2048.000000) scale(0.100000,-0.100000)"
fill="#000000" stroke="none">
<path d="M12135 20344 c-951 -272 -1942 -551 -1995 -564 -30 -6 -92 -23 -137
-36 -46 -13 -122 -35 -170 -49 -49 -14 -119 -34 -158 -45 -38 -12 -272 -79
-520 -150 -247 -71 -580 -167 -740 -213 -301 -88 -1570 -449 -2930 -835 -184
-52 -307 -82 -360 -86 -397 -35 -691 -157 -926 -384 -192 -185 -314 -429 -364
-732 -75 -449 35 -1065 260 -1461 30 -52 55 -100 55 -106 0 -8 -118 -48 -195
-66 -11 -3 -92 -25 -180 -51 -88 -25 -200 -57 -250 -71 -49 -14 -128 -37 -175
-50 -47 -14 -123 -36 -170 -49 -88 -25 -215 -61 -355 -101 -44 -13 -122 -35
-172 -49 -180 -51 -279 -79 -338 -96 -33 -10 -107 -21 -165 -23 -278 -14 -597
-118 -828 -270 -362 -238 -573 -589 -653 -1087 -32 -194 -31 -525 0 -730 43
-278 123 -554 228 -781 39 -82 305 -552 327 -577 9 -9 73 51 291 275 153 159
349 360 434 448 86 88 293 302 461 475 167 173 383 396 480 495 96 99 202 209
234 245 32 36 122 130 200 210 207 213 531 546 675 695 434 449 514 527 526
513 6 -7 63 -101 125 -208 62 -107 125 -215 140 -240 15 -25 60 -101 100 -170
77 -131 99 -170 273 -465 58 -99 144 -247 193 -330 89 -153 142 -244 231 -395
28 -47 97 -166 155 -265 111 -191 268 -459 496 -847 63 -107 68 -115 210 -358
65 -113 159 -272 207 -355 106 -180 120 -204 410 -700 220 -376 269 -459 373
-637 27 -46 91 -155 142 -243 51 -88 102 -176 115 -195 12 -19 73 -123 135
-230 62 -107 135 -232 162 -277 122 -209 143 -245 648 -1108 88 -151 222 -380
277 -475 31 -52 68 -115 83 -140 15 -25 59 -99 97 -165 180 -309 218 -373 243
-415 95 -157 211 -362 207 -367 -3 -2 -32 7 -64 21 -64 28 -574 239 -1148 476
-360 148 -462 191 -555 230 -25 10 -79 33 -120 50 -41 17 -95 40 -120 50 -25
11 -128 54 -230 95 -102 42 -239 99 -305 126 -187 79 -256 107 -625 259 -340
140 -441 182 -530 220 -25 10 -79 33 -120 50 -41 17 -95 40 -120 50 -46 20
-366 152 -1110 459 -228 94 -435 180 -460 191 -25 10 -79 33 -120 50 -41 17
-96 40 -122 52 -27 12 -50 19 -52 17 -6 -5 110 -57 1609 -722 2050 -910 3116
-1383 3719 -1650 l589 -262 35 -55 c75 -120 110 -166 178 -236 220 -225 536
-327 912 -294 75 7 145 12 154 12 30 -1 248 -100 403 -184 567 -305 965 -676
1150 -1071 102 -218 143 -466 115 -684 -23 -173 -66 -316 -140 -469 -175 -362
-469 -544 -877 -544 -219 0 -455 49 -694 144 -63 25 -494 232 -959 462 -465
229 -903 444 -975 479 -71 34 -368 180 -659 324 -291 143 -530 261 -531 261
-2 0 -290 142 -640 315 -351 173 -639 315 -640 315 -1 0 -240 118 -531 261
-291 144 -605 299 -699 344 -93 45 -341 167 -550 270 -209 103 -501 247 -650
320 -338 166 -778 382 -1230 605 -192 95 -449 221 -570 280 -121 59 -418 205
-660 325 -242 120 -500 246 -572 281 -73 35 -133 67 -133 71 1 4 11 46 24 93
16 59 28 84 37 82 14 -3 766 -343 944 -427 162 -77 215 -101 685 -315 256
-116 497 -227 535 -245 98 -47 143 -67 660 -303 253 -115 501 -229 550 -252
50 -23 297 -137 550 -252 457 -208 499 -228 668 -307 48 -22 291 -134 540
-247 248 -113 479 -218 512 -234 192 -90 281 -131 685 -315 245 -112 480 -219
523 -239 42 -20 110 -51 151 -70 40 -19 251 -115 467 -214 217 -99 432 -198
479 -219 47 -22 108 -50 135 -63 28 -12 92 -42 144 -66 52 -25 95 -43 97 -41
4 4 -8180 4097 -8192 4097 -5 0 -18 -17 -29 -37 -11 -21 -37 -67 -59 -103 -34
-58 -37 -61 -32 -30 26 141 47 273 44 281 -2 6 -130 -121 -285 -282 -155 -162
-281 -294 -280 -295 1 -1 960 -482 2132 -1069 1478 -740 2138 -1076 2155
-1096 14 -15 50 -72 81 -126 31 -54 90 -158 132 -230 43 -73 110 -190 151
-260 40 -71 318 -551 616 -1068 299 -517 558 -965 575 -995 17 -30 66 -113
107 -185 41 -71 319 -553 618 -1070 298 -517 552 -953 565 -970 12 -16 43 -64
69 -105 178 -288 435 -479 742 -550 73 -17 121 -20 338 -20 314 0 437 20 711
117 91 32 1760 861 3750 1863 358 180 1807 907 3220 1615 2354 1180 3477 1744
3482 1749 3 3 -64 74 -325 344 -129 133 -237 241 -239 239 -11 -11 52 -335 94
-485 15 -54 22 -96 17 -101 -5 -5 -223 -113 -484 -241 -261 -128 -657 -323
-880 -433 -223 -110 -508 -250 -635 -312 -282 -138 -668 -328 -1485 -730 -344
-169 -760 -374 -925 -455 -165 -81 -444 -218 -620 -305 -176 -87 -441 -217
-590 -290 -148 -73 -565 -278 -925 -455 -360 -177 -772 -380 -915 -450 -143
-70 -422 -207 -620 -305 -198 -98 -454 -224 -570 -280 -115 -56 -430 -212
-700 -345 -530 -261 -638 -310 -816 -364 -213 -64 -321 -81 -529 -81 -203 0
-266 10 -409 65 -308 119 -533 431 -617 855 -27 136 -25 350 4 483 104 470
452 881 1058 1252 179 110 567 300 611 300 8 0 328 -157 711 -350 611 -306
716 -356 849 -400 490 -161 924 -156 1263 15 168 85 335 238 446 408 37 56 75
113 85 127 10 14 32 48 49 76 33 56 -11 33 425 224 61 27 187 82 280 123 94
41 224 98 290 127 136 59 265 115 510 223 94 41 224 98 290 127 66 29 192 84
280 122 352 155 571 251 795 349 184 80 349 152 533 233 67 30 196 86 287 126
91 40 215 94 275 120 285 125 372 163 525 230 91 40 215 94 275 120 263 115
370 162 525 230 91 40 221 97 290 127 69 30 175 76 235 103 189 82 435 190
561 246 67 30 127 54 133 54 6 0 11 1 11 3 0 9 -113 263 -120 271 -5 5 -23 2
-42 -7 -18 -9 -159 -77 -313 -152 -154 -76 -361 -177 -460 -225 -99 -48 -292
-143 -430 -210 -137 -67 -322 -157 -410 -200 -88 -43 -295 -144 -460 -225
-165 -81 -358 -176 -430 -210 -71 -34 -247 -120 -390 -190 -290 -142 -600
-294 -870 -425 -99 -48 -288 -140 -420 -205 -445 -218 -669 -327 -840 -410
-203 -99 -509 -248 -930 -455 -324 -159 -355 -173 -355 -164 0 3 68 123 151
267 84 144 184 318 224 387 171 297 229 396 238 410 9 16 39 30 272 130 166
71 311 134 370 160 28 12 75 32 105 45 30 12 161 69 290 125 129 56 260 113
290 125 30 13 161 69 290 125 287 125 457 198 740 319 80 34 190 82 245 106
162 71 266 116 325 140 30 13 114 49 185 80 72 32 155 68 185 80 30 12 161 69
290 125 129 56 260 113 290 125 55 23 339 145 395 170 17 7 68 30 115 50 47
20 130 56 185 80 140 62 399 173 465 200 30 12 96 40 145 62 50 22 119 52 155
67 36 15 72 31 80 35 8 4 56 25 105 46 50 21 146 62 215 92 69 30 142 62 163
70 21 9 40 20 42 24 9 14 -103 269 -118 269 -12 0 -39 -13 -342 -160 -126 -62
-288 -141 -360 -175 -191 -92 -453 -219 -680 -330 -110 -54 -258 -126 -330
-160 -71 -34 -215 -104 -320 -155 -104 -51 -248 -121 -320 -155 -71 -34 -229
-111 -350 -170 -121 -59 -283 -138 -360 -175 -77 -37 -221 -107 -320 -155 -99
-48 -243 -118 -320 -155 -238 -115 -462 -224 -660 -320 -177 -86 -253 -123
-665 -323 -244 -118 -526 -255 -640 -311 -58 -28 -109 -53 -114 -55 -17 -7 5
33 286 518 l280 486 227 99 c124 55 390 173 591 261 201 89 556 246 790 350
412 182 724 321 1035 459 151 68 177 79 315 136 41 17 95 40 120 50 25 10 79
33 120 50 41 17 100 42 130 54 30 13 195 81 365 151 171 69 342 140 380 156
39 17 93 40 120 51 28 11 76 31 108 44 31 13 83 35 115 48 60 25 109 45 232
96 41 17 95 40 120 50 25 10 79 33 120 50 133 55 194 81 240 100 25 11 140 58
255 106 116 47 279 115 362 150 84 36 170 71 190 79 21 7 76 30 123 50 47 20
108 45 135 56 28 10 55 23 62 27 7 5 -39 59 -135 157 -81 83 -273 280 -427
439 -154 159 -305 315 -335 346 -370 380 -536 553 -538 560 -2 5 267 145 598
310 l602 301 -18 22 c-34 40 -449 472 -456 475 -11 5 -9 -30 6 -122 14 -88 8
-87 -40 6 -13 26 -27 49 -32 52 -4 2 -62 -22 -127 -55 -144 -73 -978 -495
-1450 -734 -187 -95 -529 -268 -760 -385 -231 -117 -582 -295 -780 -395 -198
-100 -558 -283 -800 -405 -242 -122 -570 -289 -730 -370 -159 -81 -492 -250
-740 -375 -247 -125 -571 -289 -720 -365 -148 -75 -384 -195 -523 -265 -139
-70 -251 -129 -249 -131 3 -3 450 198 727 328 52 24 111 50 130 58 19 7 40 17
45 21 6 4 287 133 625 287 650 296 698 318 825 377 44 21 386 177 760 347 374
171 709 324 745 340 182 85 290 135 960 440 399 181 757 345 795 363 39 18
102 47 140 65 39 18 334 153 657 300 l588 268 10 -41 c6 -23 15 -55 20 -71 6
-16 10 -30 10 -32 0 -2 -55 -30 -122 -63 -68 -32 -388 -190 -713 -351 -548
-271 -1577 -780 -2630 -1300 -242 -120 -647 -320 -900 -445 -449 -222 -850
-420 -1680 -830 -418 -206 -826 -408 -1769 -874 -548 -271 -641 -312 -789
-355 -177 -51 -243 -61 -417 -61 -142 0 -176 3 -245 23 -279 81 -461 272 -563
592 -44 138 -62 247 -62 375 0 178 35 326 118 490 178 357 617 723 1142 953
241 105 886 390 1400 617 294 130 747 330 1005 445 259 114 666 294 905 400
792 351 1296 574 2180 965 481 212 934 413 1005 445 178 79 270 118 1630 684
655 272 1207 502 1228 511 l38 16 -21 27 c-12 15 -92 99 -178 187 -166 170
-238 245 -732 755 -172 179 -363 375 -423 437 l-110 111 25 44 c13 23 94 162
178 308 229 395 260 457 336 668 188 524 212 1148 62 1602 -177 536 -586 886
-1176 1006 -70 14 -172 27 -227 30 l-100 5 -238 -398 c-131 -219 -332 -553
-447 -743 -115 -190 -232 -384 -260 -432 -28 -48 -56 -90 -62 -94 -6 -4 -31
15 -56 42 -25 27 -115 121 -201 209 -86 88 -219 226 -296 305 -77 80 -209 217
-295 305 -85 88 -286 295 -445 460 -160 165 -360 372 -445 460 -386 398 -484
499 -615 635 -77 79 -212 217 -301 305 -88 88 -286 291 -440 450 -153 160
-351 364 -440 455 -88 91 -310 320 -494 510 -183 190 -363 375 -399 412 l-66
66 -470 -134z m1127 -2191 c232 -258 575 -635 760 -840 186 -205 338 -376 338
-381 0 -11 6 -9 -245 -103 -104 -39 -253 -95 -330 -124 -290 -110 -965 -365
-1485 -562 -168 -63 -345 -131 -395 -150 -49 -18 -148 -56 -220 -83 -71 -27
-227 -85 -345 -130 -270 -103 -584 -221 -950 -360 -702 -266 -910 -344 -1135
-430 -297 -113 -526 -198 -542 -202 -7 -2 -104 146 -216 327 -237 384 -425
689 -667 1080 -393 636 -460 746 -463 757 -2 12 22 20 313 108 113 34 261 79
330 100 313 96 805 245 905 275 61 18 169 51 240 73 72 22 220 67 330 101 110
33 313 94 450 136 138 42 302 92 365 111 459 140 921 280 1180 359 168 51 424
129 570 174 146 44 375 114 510 155 135 41 253 75 262 76 9 0 195 -198 440
-467z"/>
<path d="M19445 11574 c-384 -187 -630 -307 -900 -440 -165 -80 -381 -186
-480 -234 -99 -48 -274 -134 -390 -190 -115 -56 -295 -144 -400 -195 -104 -51
-302 -148 -440 -215 -137 -67 -322 -157 -410 -200 -88 -43 -277 -135 -420
-205 -143 -70 -323 -158 -400 -195 -77 -37 -284 -138 -460 -225 -176 -86 -391
-191 -477 -232 -155 -75 -209 -108 -92 -57 32 14 79 34 104 44 25 10 77 32
115 49 39 17 183 78 320 136 138 59 320 136 405 172 85 36 187 79 225 95 39
16 95 40 125 53 30 14 136 59 235 100 177 74 250 105 330 140 22 9 103 44 180
77 77 32 192 81 255 108 63 27 196 83 295 125 99 42 232 98 295 125 117 50
494 210 765 325 291 123 432 183 600 254 94 39 195 83 225 96 30 13 134 58
230 98 304 128 395 167 408 176 10 6 5 26 -23 92 -57 133 -79 180 -85 183 -3
2 -63 -25 -135 -60z"/>
<path d="M19280 10822 c-119 -59 -332 -164 -475 -234 -143 -70 -404 -197 -580
-284 -176 -86 -401 -196 -500 -244 -99 -48 -283 -138 -410 -200 -126 -62 -329
-161 -450 -220 -240 -117 -531 -259 -920 -450 -137 -67 -335 -164 -440 -215
-190 -92 -405 -198 -925 -452 -151 -74 -321 -157 -377 -184 -57 -27 -103 -51
-103 -54 0 -6 65 22 995 422 44 19 105 45 135 58 30 12 78 33 105 45 28 12 75
33 105 45 30 13 109 46 175 75 66 29 149 64 185 80 101 42 621 266 660 283 19
9 89 39 155 67 66 28 145 62 175 75 30 13 109 47 175 75 66 28 136 58 155 67
19 8 316 136 660 283 344 147 641 275 660 283 19 9 89 39 155 67 66 28 145 62
175 75 30 13 109 47 175 75 66 28 136 58 155 67 19 8 98 42 175 75 173 73 348
150 357 157 10 9 -108 266 -123 268 -8 1 -111 -46 -229 -105z"/>
<path d="M963 9385 l-60 -134 81 -35 c44 -19 187 -80 316 -136 129 -56 282
-122 340 -147 58 -25 139 -60 180 -78 41 -17 170 -73 285 -122 116 -50 226
-98 245 -106 84 -38 276 -121 410 -178 190 -81 253 -108 510 -219 118 -51 244
-105 280 -120 36 -15 106 -45 155 -67 50 -22 135 -59 190 -83 55 -23 134 -57
175 -75 184 -80 298 -129 475 -205 105 -45 235 -101 290 -125 55 -24 138 -60
185 -80 47 -20 99 -43 115 -50 53 -24 338 -147 395 -170 30 -12 161 -69 290
-125 129 -56 260 -112 290 -125 30 -12 91 -38 135 -58 44 -20 166 -73 270
-117 208 -89 370 -159 454 -196 30 -14 55 -23 57 -21 4 4 -43 28 -301 152
-110 54 -265 129 -345 167 -80 39 -217 106 -305 148 -395 191 -502 243 -680
330 -104 51 -257 125 -340 165 -82 40 -231 112 -330 160 -99 48 -238 116 -310
150 -71 34 -220 106 -330 160 -440 214 -556 270 -690 335 -77 37 -219 106
-315 153 -96 46 -251 122 -345 167 -93 45 -249 121 -345 167 -214 104 -408
198 -985 478 -99 48 -220 107 -269 131 -49 24 -94 44 -101 44 -6 0 -39 -61
-72 -135z"/>
<path d="M3674 8876 c11 -9 24 -16 30 -16 12 0 7 5 -24 19 -24 11 -24 11 -6
-3z"/>
<path d="M1081 8565 c-41 -74 -74 -137 -75 -140 0 -4 60 -34 134 -67 226 -99
449 -198 565 -248 61 -27 166 -73 235 -103 69 -30 199 -87 290 -127 208 -91
351 -153 510 -223 69 -30 204 -89 300 -131 96 -42 220 -97 275 -121 55 -24
179 -78 275 -120 96 -42 231 -101 300 -132 278 -121 352 -154 510 -223 91 -40
221 -97 290 -127 69 -30 175 -76 235 -103 61 -26 184 -80 275 -120 284 -125
401 -176 525 -230 66 -28 138 -60 160 -70 22 -10 99 -43 170 -75 72 -31 180
-78 240 -105 61 -26 164 -71 230 -100 66 -29 138 -60 160 -70 22 -10 99 -43
170 -75 267 -116 354 -155 521 -229 94 -42 175 -76 180 -76 9 1 -447 228 -741
370 -77 37 -284 138 -460 225 -176 87 -437 215 -580 285 -143 70 -379 186
-525 257 -146 72 -391 192 -545 268 -154 76 -388 190 -520 255 -318 155 -682
334 -1050 515 -165 81 -412 203 -550 270 -137 67 -380 187 -540 265 -159 78
-375 184 -480 235 -104 51 -240 117 -300 148 l-110 55 -74 -133z"/>
<path d="M12624 7044 c-18 -14 -18 -14 6 -3 31 14 36 19 24 19 -6 0 -19 -7
-30 -16z"/>
<path d="M7041 6606 c2 -2 15 -9 29 -15 24 -11 24 -11 6 3 -16 13 -49 24 -35
12z"/>
<path d="M18600 5489 c-349 -175 -1654 -826 -2900 -1447 -1246 -620 -2811
-1400 -3477 -1732 -667 -332 -1211 -605 -1209 -607 2 -2 54 21 117 51 167 78
215 100 649 298 217 99 458 209 535 245 77 36 169 79 205 95 36 17 241 110
455 208 215 98 485 221 600 275 116 54 386 177 600 275 215 98 424 193 465
213 134 63 228 106 680 312 245 111 480 219 523 239 42 20 112 52 155 72 42
20 311 143 597 274 994 455 1610 738 1685 773 67 31 934 428 1052 481 27 11
48 24 48 27 0 4 -21 53 -46 110 -25 57 -50 116 -56 132 -6 16 -17 26 -26 26
-10 -1 -303 -145 -652 -320z"/>
<path d="M9300 4106 c0 -2 7 -7 16 -10 8 -3 12 -2 9 4 -6 10 -25 14 -25 6z"/>
</g>
</svg>
